<?xml version="1.0" encoding="iso-8859-1"?>
<!-- Generator: Adobe Illustrator 19.0.0, SVG Export Plug-In . SVG Version: 6.00 Build 0)  -->
<svg version="1.1" id="Layer_1" xmlns="http://www.w3.org/2000/svg" xmlns:xlink="http://www.w3.org/1999/xlink" x="0px" y="0px"
	 viewBox="0 0 493.284 493.284" style="enable-background:new 0 0 493.284 493.284;" xml:space="preserve">
<g>
	<path style="fill:#FF0C38;" d="M289.24,260.956l28.285,28.284l-14.142,14.143l59.271,59.271
		c87.303-87.303,87.295-229.356-0.008-316.659L204.321,204.321l70.778,70.778L289.24,260.956z M301.291,176.545l40,0.007l-0.008,40
		l-40-0.007L301.291,176.545z"/>
	<path style="fill:#D80027;" d="M362.654,362.654l-59.271-59.271l-14.141,14.142l-28.285-28.284l14.142-14.143l-70.778-70.778
		L45.995,362.646C133.298,449.949,275.351,449.957,362.654,362.654z M176.545,301.292l40-0.008l0.007,40l-40,0.008L176.545,301.292z
		"/>
	<path style="fill:#5EAC24;" d="M408.641,0l-45.995,45.995c87.303,87.303,87.311,229.356,0.008,316.659l45.995,45.995
		C521.497,295.802,521.497,112.84,408.641,0z"/>
	<path style="fill:#4E901E;" d="M45.995,362.646L0,408.641c112.84,112.856,295.801,112.856,408.649,0.008l-45.995-45.995
		C275.351,449.957,133.298,449.949,45.995,362.646z"/>
	<polygon style="fill:#830018;" points="289.24,260.956 275.098,275.098 260.957,289.241 289.242,317.525 303.383,303.383 
		317.525,289.24 	"/>
	<rect x="301.288" y="176.549" style="fill:#830018;" width="40" height="40"/>
	<rect x="176.549" y="301.288" style="fill:#830018;" width="40" height="40"/>
</g>
<g>
</g>
<g>
</g>
<g>
</g>
<g>
</g>
<g>
</g>
<g>
</g>
<g>
</g>
<g>
</g>
<g>
</g>
<g>
</g>
<g>
</g>
<g>
</g>
<g>
</g>
<g>
</g>
<g>
</g>
</svg>
